<svg t="1695171553124" class="icon" viewBox="0 0 1024 1024" version="1.1" xmlns="http://www.w3.org/2000/svg" p-id="16438" width="200" height="200"><path d="M880.0256 957.44H150.4256c-33.6384 0-60.8256-21.76-60.8256-48.64 0-26.88 27.1872-48.64 60.8256-48.64h729.6c33.5872 0 60.7744 21.76 60.7744 48.64 0 26.88-27.1872 48.64-60.8256 48.64zM219.3408 586.752l448-448 144.896 144.7936-448.0512 448-144.8448-144.7936z m-22.5792 22.6304l144.8448 144.896-9.0624 9.0112-153.5488 44.3392a28.8256 28.8256 0 0 1-35.6352-35.6352l44.3392-153.6 9.0624-8.96z m638.0544-348.4672l-144.8448-144.8448 47.872-47.8208a34.6624 34.6624 0 0 1 49.152 0L882.688 163.84a34.7136 34.7136 0 0 1 0 49.1008l-47.8208 47.9232z" fill="#ffbe10" p-id="16439"></path></svg>
