<svg t="1695171199554" class="icon" viewBox="0 0 1024 1024" version="1.1" xmlns="http://www.w3.org/2000/svg" p-id="7842" width="200" height="200"><path d="M870.4 122.88l2.94912 0.14336A30.72 30.72 0 0 1 901.12 153.6v184.32l-0.14336 2.94912A30.72 30.72 0 0 1 870.4 368.64l-2.94912-0.14336A30.72 30.72 0 0 1 839.68 337.92v-110.16192l-151.2448 151.26528A305.93024 305.93024 0 0 1 757.76 573.44c0 169.65632-137.54368 307.2-307.2 307.2-169.65632 0-307.2-137.54368-307.2-307.2 0-169.65632 137.54368-307.2 307.2-307.2 73.76896 0 141.45536 26.0096 194.41664 69.3248L796.20096 184.32H686.08l-2.94912-0.14336A30.72 30.72 0 0 1 686.08 122.88h184.32zM450.56 327.68c-135.72096 0-245.76 110.03904-245.76 245.76s110.03904 245.76 245.76 245.76 245.76-110.03904 245.76-245.76-110.03904-245.76-245.76-245.76z" fill="#ffbe10" p-id="7843"></path></svg>
