<svg t="1695171388975" class="icon" viewBox="0 0 1024 1024" version="1.1" xmlns="http://www.w3.org/2000/svg" p-id="9887" width="200" height="200"><path d="M960 384l-166.4-96V362.666667l78.933333 46.933333L512 652.8 149.333333 407.466667l81.066667-46.933334v-74.666666L64 384v535.466667c0 23.466667 19.2 42.666667 42.666667 42.666666h810.666666c23.466667 0 42.666667-19.2 42.666667-42.666666V384z m-64 514.133333H128v-426.666666l360.533333 243.2c14.933333 10.666667 34.133333 10.666667 46.933334 0L896 471.466667v426.666666z" fill="#ffbe10" p-id="9888"></path><path d="M789.333333 64H234.666667c-23.466667 0-42.666667 19.2-42.666667 42.666667v405.333333h64V128h512v384h64V106.666667c0-23.466667-19.2-42.666667-42.666667-42.666667z" fill="#ffbe10" p-id="9889"></path><path d="M672 320h-320c-17.066667 0-32-14.933333-32-32s14.933333-32 32-32h320c17.066667 0 32 14.933333 32 32s-14.933333 32-32 32zM544 448h-192c-17.066667 0-32-14.933333-32-32s14.933333-32 32-32h192c17.066667 0 32 14.933333 32 32s-14.933333 32-32 32z" fill="#ffbe10" p-id="9890"></path></svg>
